<svg preserveAspectRatio="none" width="52" height="18" viewBox="0 0 52 18" fill="none" xmlns="http://www.w3.org/2000/svg">
<g id="IRBAGS">
<path d="M2.29987 0V2.20087H0V0H2.29987ZM2.29987 3.91048V14.0502H0V3.91048H2.29987Z" fill="black"/>
<path d="M9.88965 3.71397V5.85589C9.48617 5.81659 9.20373 5.79694 9.08268 5.79694C7.06525 5.79694 6.07671 7.07424 6.07671 9.58952V14.0502H3.79702V3.91048H5.95567V5.9345C6.68194 4.44105 7.85205 3.67467 9.44582 3.67467L9.88965 3.71397Z" fill="black"/>
<path d="M12.5842 0.0589524V5.22707C13.3508 4.18559 14.4806 3.65502 15.9936 3.65502C17.3655 3.65502 18.4751 4.14629 19.3224 5.08952C20.1697 6.0524 20.5934 7.32969 20.5934 8.90175C20.5934 10.5524 20.1495 11.869 19.3022 12.8515C18.4347 13.8341 17.2848 14.3253 15.8726 14.3253C14.299 14.3253 13.1491 13.7751 12.4631 12.6747V14.0502H10.3045V0.0589524H12.5842ZM15.4086 5.44323C14.5007 5.44323 13.7946 5.75764 13.2701 6.38646C12.7456 7.01528 12.5035 7.89956 12.5035 9C12.5035 10.1004 12.7456 10.9454 13.2701 11.5742C13.7946 12.2031 14.5007 12.5175 15.4086 12.5175C16.2559 12.5175 16.962 12.2031 17.4865 11.5546C18.0111 10.9061 18.2733 10.0415 18.2733 8.94105C18.2733 7.87991 18.0111 7.01528 17.4865 6.38646C16.962 5.75764 16.2761 5.44323 15.4086 5.44323Z" fill="black"/>
<path d="M21.7096 7.03493C21.9517 4.75546 23.4647 3.59607 26.269 3.59607C27.5601 3.59607 28.6092 3.85153 29.3758 4.34279C30.1424 4.85371 30.5459 5.62009 30.5459 6.66157V11.81C30.5459 12.1048 30.5661 12.3013 30.6468 12.3996C30.7275 12.5175 30.8687 12.5568 31.0906 12.5568C31.252 12.5568 31.4134 12.5568 31.6151 12.5175V14.0895C31.0099 14.2467 30.5257 14.3057 30.1223 14.3057C29.1337 14.3057 28.5688 13.9127 28.4276 13.0873C27.5399 13.9127 26.3295 14.3057 24.7761 14.3057C23.6867 14.3057 22.8393 14.0502 22.2139 13.5C21.5684 12.9498 21.2657 12.2227 21.2657 11.2795C21.2657 11.0044 21.2859 10.7293 21.3666 10.4738C21.4271 10.238 21.5078 10.0218 21.5885 9.82533C21.6692 9.64847 21.8104 9.47162 22.0122 9.31441C22.2139 9.15721 22.3753 9.0393 22.4964 8.9214C22.6174 8.82314 22.8393 8.72489 23.1218 8.62664C23.4042 8.54804 23.6261 8.46943 23.7674 8.43013C23.9086 8.39083 24.1507 8.33188 24.5138 8.27293C24.8568 8.23362 25.0787 8.19432 25.1997 8.17467C25.3208 8.15502 25.5629 8.11572 25.926 8.07642C26.733 7.97817 27.2979 7.89956 27.6005 7.82096C27.8829 7.74236 28.0847 7.6441 28.2057 7.4869C28.2864 7.38865 28.3469 7.15284 28.3469 6.75982C28.3469 5.73799 27.6206 5.22707 26.2084 5.22707C25.4418 5.22707 24.8971 5.36463 24.5541 5.63974C24.191 5.91485 23.9691 6.38646 23.8884 7.03493H21.7096ZM28.3267 8.9607C28.1452 9.05895 27.9434 9.13755 27.7215 9.21616C27.4794 9.29476 27.2979 9.33406 27.1566 9.35371C27.0154 9.37336 26.7935 9.39301 26.4909 9.43231C26.1883 9.47162 25.9865 9.51092 25.9058 9.51092C25.6234 9.55022 25.4015 9.58952 25.2401 9.62882C25.0787 9.66812 24.8769 9.70742 24.6348 9.78603C24.3928 9.86463 24.2112 9.96288 24.0901 10.0808C23.9691 10.1987 23.848 10.3362 23.7674 10.5328C23.6665 10.7293 23.6261 10.9454 23.6261 11.2009C23.6261 11.6921 23.7875 12.0655 24.1103 12.321C24.4331 12.5961 24.8971 12.714 25.5023 12.714C26.5111 12.714 27.2979 12.4585 27.8627 11.9083C28.1653 11.6135 28.3267 11.024 28.3267 10.1594V8.9607Z" fill="black"/>
<path d="M41.756 3.91048V12.8712C41.756 14.6201 41.3727 15.917 40.6061 16.7424C39.8395 17.5873 38.5685 18 36.7528 18C33.8881 18 32.3346 16.9782 32.0926 14.9148H34.3924C34.5942 15.9367 35.4011 16.4279 36.8133 16.4279C37.7615 16.4279 38.4475 16.1921 38.8913 15.7205C39.3351 15.2489 39.557 14.5022 39.557 13.441V12.2424C38.7904 13.3821 37.701 13.952 36.2485 13.952C34.8564 13.952 33.7468 13.5 32.9399 12.5961C32.1329 11.6921 31.7294 10.4541 31.7294 8.90175C31.7294 7.32969 32.1531 6.0524 33.0004 5.08952C33.8477 4.12664 34.9573 3.63537 36.3695 3.63537C37.0958 3.63537 37.7212 3.77293 38.2255 4.04804C38.7097 4.32314 39.1737 4.73581 39.6176 5.32533V3.91048H41.756ZM36.773 5.44323C35.9055 5.44323 35.2196 5.75764 34.7354 6.34716C34.2512 6.95633 34.0091 7.80131 34.0091 8.86245C34.0091 9.88428 34.2512 10.7096 34.7556 11.2991C35.2599 11.9083 35.9257 12.2031 36.773 12.2031C37.6203 12.2031 38.3062 11.9083 38.8106 11.2795C39.2948 10.6507 39.557 9.80568 39.557 8.74454C39.557 7.72271 39.2948 6.91703 38.8106 6.32751C38.3264 5.73799 37.6405 5.44323 36.773 5.44323Z" fill="black"/>
<path d="M51.6167 6.85808H49.4177C49.2765 5.79694 48.53 5.24672 47.1582 5.24672C46.5529 5.24672 46.1091 5.36463 45.7863 5.56114C45.4635 5.77729 45.3021 6.07205 45.3021 6.42576C45.3021 6.54367 45.3021 6.66157 45.3223 6.74017C45.3425 6.83843 45.3828 6.91703 45.4434 6.99563C45.5039 7.07424 45.5644 7.13319 45.6048 7.17249C45.6451 7.23144 45.746 7.29039 45.867 7.32969C45.9881 7.38865 46.0688 7.42795 46.1495 7.46725C46.2302 7.50655 46.3512 7.54585 46.5328 7.58515C46.6942 7.62445 46.8354 7.66376 46.9363 7.68341C47.0371 7.72271 47.1985 7.76201 47.4406 7.80131C47.6625 7.84061 47.8441 7.87991 47.9651 7.89956C48.4897 8.01747 48.8528 8.11572 49.0949 8.17467C49.337 8.23362 49.68 8.35153 50.1238 8.52838C50.5676 8.70524 50.9106 8.8821 51.1325 9.0786C51.3342 9.27511 51.536 9.53057 51.7176 9.86463C51.8991 10.1987 52 10.5721 52 11.0044C52 12.0262 51.5763 12.8515 50.7694 13.441C49.9422 14.0502 48.8326 14.345 47.4608 14.345C45.9679 14.345 44.8381 14.0502 44.0513 13.441C43.2444 12.8515 42.8207 11.9672 42.7804 10.8079H44.9793C45.1004 12.0852 45.9275 12.714 47.5011 12.714C48.1669 12.714 48.7116 12.5961 49.1151 12.321C49.5186 12.0459 49.7405 11.6921 49.7405 11.2402C49.7405 11.024 49.68 10.8275 49.5791 10.6703C49.4782 10.5131 49.3168 10.3952 49.0949 10.2773C48.8528 10.1594 48.6309 10.0808 48.4292 10.0218C48.2274 9.96288 47.945 9.88428 47.602 9.80568L47.481 9.78603C47.4406 9.78603 47.4204 9.76638 47.3801 9.76638C47.3397 9.76638 47.2994 9.74672 47.259 9.72707C45.7661 9.37336 44.8381 9.09825 44.4346 8.90175C43.4663 8.46943 43.0023 7.72271 43.0023 6.68122C43.0023 5.73799 43.3654 4.99127 44.132 4.44105C44.8785 3.89083 45.9275 3.61572 47.259 3.61572C48.53 3.61572 49.5791 3.89083 50.3861 4.4214C51.193 4.97162 51.6167 5.77729 51.6167 6.85808Z" fill="black"/>
</g>
</svg>
